<svg xmlns="http://www.w3.org/2000/svg" viewBox="0 0 64 64" width="64" height="64">
  <circle cx="32" cy="32" r="30" fill="#FFFFFF" stroke="#0D1B2A" stroke-width="3"/>
  <g fill="#0D1B2A">
    <polygon points="32,16 40,22 37,31 27,31 24,22"/>
    <polygon points="32,48 24,42 27,33 37,33 40,42"/>
    <polygon points="12,26 20,24 23,33 16,40 9,35"/>
    <polygon points="52,26 44,24 41,33 48,40 55,35"/>
    <polygon points="12,38 9,29 16,24 13,24 12,38"/>
  </g>
  <g stroke="#0D1B2A" stroke-width="2" fill="none">
    <line x1="32" y1="2" x2="32" y2="16"/>
    <line x1="32" y1="48" x2="32" y2="62"/>
    <line x1="2" y1="32" x2="12" y2="26"/>
    <line x1="2" y1="32" x2="12" y2="38"/>
    <line x1="62" y1="32" x2="52" y2="26"/>
    <line x1="62" y1="32" x2="52" y2="38"/>
  </g>
</svg>
